<mxfile host="app.diagrams.net" modified="2023-10-04T17:22:34.344Z" agent="Mozilla/5.0 (X11; Linux x86_64; rv:109.0) Gecko/20100101 Firefox/114.0" version="22.0.2" etag="HlYguAc2jareoUSQnzxJ" type="github">
  <diagram name="PÃ¡gina-1" id="_B2p_yOOd0oXL59ag1Uf">
    <mxGraphModel>
      <root>
        <mxCell id="0" />
        <mxCell id="1" parent="0" />
      </root>
    </mxGraphModel>
  </diagram>
</mxfile>
